<svg width="1920" height="302" viewBox="0 0 1920 302" fill="none" xmlns="http://www.w3.org/2000/svg">
<path d="M0 37.9419L40 31.6419C80 25.2419 160 12.6419 240 8.64187C320 4.64187 400 9.24186 480 25.4419C560 41.6419 640 69.2419 720 68.2419C800 67.2419 880 37.6418 960 21.2418C1040 4.94185 1120 1.94185 1200 12.2418C1280 22.6418 1360 46.2419 1440 44.9419C1520 43.6419 1600 17.2419 1680 6.94186C1760 -3.35814 1840 2.24187 1880 5.14187L1920 7.94186V301.942H1880C1840 301.942 1760 301.942 1680 301.942C1600 301.942 1520 301.942 1440 301.942C1360 301.942 1280 301.942 1200 301.942C1120 301.942 1040 301.942 960 301.942C880 301.942 800 301.942 720 301.942C640 301.942 560 301.942 480 301.942C400 301.942 320 301.942 240 301.942C160 301.942 80 301.942 40 301.942H0V37.9419Z" fill="#F2F2F2"/>
</svg>
