<svg width="1920" height="385" viewBox="0 0 1920 385" fill="none" xmlns="http://www.w3.org/2000/svg">
<path d="M0 37.9418L40 49.9418C80 61.9418 160 85.9418 240 99.1418C320 112.242 400 114.642 480 98.9418C560 83.2418 640 49.6418 720 47.7418C800 45.9418 880 75.9418 960 93.2418C1040 110.642 1120 115.242 1200 96.9418C1280 78.6418 1360 37.2418 1440 16.7418C1520 -3.75818 1600 -3.35818 1680 9.74182C1760 22.9418 1840 48.9418 1880 61.9418L1920 74.9418V384.942H1880C1840 384.942 1760 384.942 1680 384.942C1600 384.942 1520 384.942 1440 384.942C1360 384.942 1280 384.942 1200 384.942C1120 384.942 1040 384.942 960 384.942C880 384.942 800 384.942 720 384.942C640 384.942 560 384.942 480 384.942C400 384.942 320 384.942 240 384.942C160 384.942 80 384.942 40 384.942H0V37.9418Z" fill="#F8F8F8"/>
</svg>
