<svg width="1920" height="194" viewBox="0 0 1920 194" fill="none" xmlns="http://www.w3.org/2000/svg">
<path d="M0 11.9416L40 11.6416C80 11.2416 160 10.6416 240 8.74161C320 6.94161 400 3.94162 480 1.94162C560 -0.0583781 640 -1.05839 720 10.7416C800 22.6416 880 47.2416 960 49.9416C1040 52.6416 1120 33.2416 1200 28.4416C1280 23.6416 1360 33.2416 1440 33.2416C1520 33.2416 1600 23.6416 1680 21.7416C1760 19.9416 1840 25.9416 1880 28.9416L1920 31.9416V193.942H1880C1840 193.942 1760 193.942 1680 193.942C1600 193.942 1520 193.942 1440 193.942C1360 193.942 1280 193.942 1200 193.942C1120 193.942 1040 193.942 960 193.942C880 193.942 800 193.942 720 193.942C640 193.942 560 193.942 480 193.942C400 193.942 320 193.942 240 193.942C160 193.942 80 193.942 40 193.942H0V11.9416Z" fill="#EBEBEB"/>
</svg>
