<svg width="1920" height="143" viewBox="0 0 1920 143" fill="none" xmlns="http://www.w3.org/2000/svg">
<path d="M0 0.941857L40 0.641869C80 0.241869 160 -0.358143 240 3.94186C320 8.24186 400 17.6419 480 28.9419C560 40.2419 640 53.6419 720 49.1419C800 44.6419 880 22.2419 960 25.1419C1040 27.9419 1120 55.9418 1200 69.7418C1280 83.6418 1360 83.2419 1440 80.9419C1520 78.6419 1600 74.2419 1680 70.4419C1760 66.6419 1840 63.2419 1880 61.6419L1920 59.9419V142.942H1880C1840 142.942 1760 142.942 1680 142.942C1600 142.942 1520 142.942 1440 142.942C1360 142.942 1280 142.942 1200 142.942C1120 142.942 1040 142.942 960 142.942C880 142.942 800 142.942 720 142.942C640 142.942 560 142.942 480 142.942C400 142.942 320 142.942 240 142.942C160 142.942 80 142.942 40 142.942H0V0.941857Z" fill="#E5E5E5"/>
</svg>
